<svg xmlns="http://www.w3.org/2000/svg" viewBox="0 0 1024 1024">
    <g id="text">
        <path fill="cyan" d="C 291.2 280.939 291.2 455.104 291.2 455.104 C 317.717 423.488 349.504 407.573 386.368 407.573 C 405.355 407.573 422.357 411.2 437.611 418.389 C 452.907 425.536 464.341 434.709 472.064 445.845 C 479.829 457.088 485.077 469.397 487.915 482.965 C 490.731 496.469 492.139 517.483 492.139 545.984 C 492.139 545.984 492.139 732.203 492.139 732.203 C 492.139 732.203 409.749 732.203 409.749 732.203 C 409.749 732.203 409.749 564.48 409.749 564.48 C 409.749 531.2 408.256 510.123 405.12 501.163 C 402.176 492.395 396.352 484.864 388.587 479.829 C 380.651 474.475 370.773 471.829 358.848 471.829 C 345.195 471.829 332.949 475.243 322.304 482.027 C 311.424 488.853 303.616 499.051 298.667 512.683 C 293.632 526.336 291.115 546.496 291.2 573.184 C 291.2 573.184 291.115 732.203 291.115 732.203 C 291.115 732.203 208.832 732.203 208.832 732.203 C 208.832 732.203 208.832 280.939 208.832 280.939 C 208.832 280.939 291.221 280.939 291.221 280.939 M 615.616 280.939 C 615.616 280.939 615.616 455.104 615.616 455.104 C 642.155 423.488 673.92 407.573 710.763 407.573 C 729.685 407.573 746.816 411.2 762.091 418.389 C 777.323 425.536 788.757 434.709 796.437 445.845 C 804.181 457.024 809.579 469.653 812.288 482.965 C 815.125 496.469 816.533 517.483 816.533 545.984 C 816.533 545.984 816.533 732.203 816.533 732.203 C 816.533 732.203 734.229 732.203 734.229 732.203 C 734.229 732.203 734.229 564.48 734.229 564.48 C 734.229 531.2 732.672 510.123 729.536 501.163 C 726.592 492.373 720.747 484.843 712.96 479.829 C 705.109 474.475 695.147 471.829 683.221 471.829 C 669.589 471.829 657.344 475.243 646.677 482.027 C 635.947 488.853 628.096 499.051 623.083 512.683 C 618.133 526.336 615.616 546.496 615.616 573.184 C 615.616 573.184 615.616 732.203 615.616 732.203 C 615.616 732.203 533.333 732.203 533.333 732.203 C 533.333 732.203 533.333 280.939 533.333 280.939 C 533.333 280.939 615.616 280.939 615.616 280.939"" />
    </g>
    <g id="bg">
        <circle fill="cyan" r="512" cx="512" cy="512" />
    </g>
    <use xlink:href="#text" />
</svg>